<svg width="30" height="30" viewBox="0 0 30 30" fill="none" xmlns="http://www.w3.org/2000/svg">
<path fill-rule="evenodd" clip-rule="evenodd" d="M21.8756 0H8.12438C5.97072 0.00347084 3.90627 0.860544 2.38341 2.38341C0.860544 3.90627 0.00347084 5.97072 0 8.12438L0 21.8756C0.00347084 24.0293 0.860544 26.0937 2.38341 27.6166C3.90627 29.1395 5.97072 29.9965 8.12438 30H21.8756C24.0293 29.9965 26.0937 29.1395 27.6166 27.6166C29.1395 26.0937 29.9965 24.0293 30 21.8756V8.12438C29.9965 5.97072 29.1395 3.90627 27.6166 2.38341C26.0937 0.860544 24.0293 0.00347084 21.8756 0V0ZM15 21.8756C13.1765 21.8756 11.4276 21.1512 10.1382 19.8618C8.84877 18.5724 8.12438 16.8235 8.12438 15C8.12438 13.1765 8.84877 11.4276 10.1382 10.1382C11.4276 8.84877 13.1765 8.12438 15 8.12438C16.8235 8.12438 18.5724 8.84877 19.8618 10.1382C21.1512 11.4276 21.8756 13.1765 21.8756 15C21.8756 16.8235 21.1512 18.5724 19.8618 19.8618C18.5724 21.1512 16.8235 21.8756 15 21.8756ZM23.1244 8.12438C22.6271 8.12438 22.1502 7.92683 21.7985 7.5752C21.4469 7.22357 21.2494 6.74666 21.2494 6.24937C21.2494 5.75209 21.4469 5.27518 21.7985 4.92355C22.1502 4.57192 22.6271 4.37437 23.1244 4.37437C23.6217 4.37437 24.0986 4.57192 24.4502 4.92355C24.8018 5.27518 24.9994 5.75209 24.9994 6.24937C24.9994 6.74666 24.8018 7.22357 24.4502 7.5752C24.0986 7.92683 23.6217 8.12438 23.1244 8.12438Z" fill="#333333"/>
</svg>
